<svg width="24" height="27" viewBox="0 0 24 27" fill="none" xmlns="http://www.w3.org/2000/svg">
<path d="M9.86536 26.0006C11.0466 26.0006 12.0041 24.9126 12.0041 23.5706C12.0041 22.2286 11.0466 21.1406 9.86536 21.1406C8.68413 21.1406 7.72656 22.2286 7.72656 23.5706C7.72656 24.9126 8.68413 26.0006 9.86536 26.0006Z" stroke="white" stroke-width="1.5" stroke-linecap="round" stroke-linejoin="round"/>
<path d="M19.1818 26.0006C20.363 26.0006 21.3206 24.9126 21.3206 23.5706C21.3206 22.2286 20.363 21.1406 19.1818 21.1406C18.0005 21.1406 17.043 22.2286 17.043 23.5706C17.043 24.9126 18.0005 26.0006 19.1818 26.0006Z" stroke="white" stroke-width="1.5" stroke-linecap="round" stroke-linejoin="round"/>
<path d="M4.9054 4.29283L7.43273 13.3842C7.82125 14.7813 8.01489 15.4799 8.38833 15.997C8.71525 16.4542 9.1415 16.807 9.62307 17.0256C10.17 17.2727 10.8138 17.2727 12.1039 17.2727H16.951C18.2411 17.2727 18.8849 17.2727 19.4306 17.0256C19.9134 16.807 20.3384 16.4542 20.6666 15.997C21.0388 15.4799 21.2324 14.7813 21.6222 13.3842L22.1365 11.5328L22.4382 10.4385L22.8544 8.93851C23.0029 8.40351 23.0384 7.83629 22.9581 7.2828C22.8777 6.72931 22.6837 6.20512 22.3917 5.75269C22.0998 5.30027 21.7182 4.93234 21.2778 4.67871C20.8374 4.42507 20.3506 4.29288 19.8568 4.29283H4.9054ZM4.9054 4.29283L4.89157 4.23997C4.83848 4.03792 4.77977 3.83782 4.71554 3.63998C4.46098 2.9079 4.02931 2.27259 3.4704 1.80746C2.91148 1.34233 2.24814 1.06635 1.55702 1.01143C1.42751 1 1.28542 1 1 1" stroke="white" stroke-width="1.5" stroke-linecap="round" stroke-linejoin="round"/>
</svg>
