<svg width="52" height="53" viewBox="0 0 52 53" fill="none" xmlns="http://www.w3.org/2000/svg">
<rect y="0.5" width="52" height="52" rx="26" fill="white"/>
<path d="M27.028 16.5C28.153 16.503 28.724 16.509 29.217 16.523L29.411 16.53C29.635 16.538 29.856 16.548 30.123 16.56C31.187 16.61 31.913 16.778 32.55 17.025C33.21 17.279 33.766 17.623 34.322 18.178C34.8307 18.6777 35.2242 19.2825 35.475 19.95C35.722 20.587 35.89 21.313 35.94 22.378C35.952 22.644 35.962 22.865 35.97 23.09L35.976 23.284C35.991 23.776 35.997 24.347 35.999 25.472L36 26.218V27.528C36.0025 28.2574 35.9948 28.9868 35.977 29.716L35.971 29.91C35.963 30.135 35.953 30.356 35.941 30.622C35.891 31.687 35.721 32.412 35.475 33.05C35.2242 33.7175 34.8307 34.3223 34.322 34.822C33.8223 35.3307 33.2175 35.7242 32.55 35.975C31.913 36.222 31.187 36.39 30.123 36.44L29.411 36.47L29.217 36.476C28.724 36.49 28.153 36.497 27.028 36.499L26.282 36.5H24.973C24.2433 36.5026 23.5135 36.4949 22.784 36.477L22.59 36.471C22.3526 36.462 22.1153 36.4517 21.878 36.44C20.814 36.39 20.088 36.222 19.45 35.975C18.7828 35.7241 18.1785 35.3306 17.679 34.822C17.17 34.3224 16.7761 33.7176 16.525 33.05C16.278 32.413 16.11 31.687 16.06 30.622L16.03 29.91L16.025 29.716C16.0066 28.9868 15.9983 28.2574 16 27.528V25.472C15.9973 24.7426 16.0046 24.0132 16.022 23.284L16.029 23.09C16.037 22.865 16.047 22.644 16.059 22.378C16.109 21.313 16.277 20.588 16.524 19.95C16.7757 19.2822 17.1702 18.6774 17.68 18.178C18.1792 17.6695 18.7832 17.2761 19.45 17.025C20.088 16.778 20.813 16.61 21.878 16.56C22.144 16.548 22.366 16.538 22.59 16.53L22.784 16.524C23.5132 16.5062 24.2426 16.4986 24.972 16.501L27.028 16.5ZM26 21.5C24.6739 21.5 23.4022 22.0268 22.4645 22.9645C21.5268 23.9021 21 25.1739 21 26.5C21 27.8261 21.5268 29.0979 22.4645 30.0355C23.4022 30.9732 24.6739 31.5 26 31.5C27.3261 31.5 28.5979 30.9732 29.5356 30.0355C30.4732 29.0979 31 27.8261 31 26.5C31 25.1739 30.4732 23.9021 29.5356 22.9645C28.5979 22.0268 27.3261 21.5 26 21.5ZM26 23.5C26.394 23.4999 26.7841 23.5775 27.1481 23.7282C27.5121 23.8789 27.8429 24.0998 28.1215 24.3783C28.4001 24.6569 28.6211 24.9875 28.772 25.3515C28.9228 25.7154 29.0005 26.1055 29.0005 26.4995C29.0006 26.8935 28.9231 27.2836 28.7723 27.6476C28.6216 28.0116 28.4007 28.3423 28.1222 28.621C27.8437 28.8996 27.513 29.1206 27.149 29.2714C26.7851 29.4223 26.395 29.4999 26.001 29.5C25.2054 29.5 24.4423 29.1839 23.8797 28.6213C23.3171 28.0587 23.001 27.2956 23.001 26.5C23.001 25.7044 23.3171 24.9413 23.8797 24.3787C24.4423 23.8161 25.2054 23.5 26.001 23.5M31.251 20C30.9195 20 30.6016 20.1317 30.3671 20.3661C30.1327 20.6005 30.001 20.9185 30.001 21.25C30.001 21.5815 30.1327 21.8995 30.3671 22.1339C30.6016 22.3683 30.9195 22.5 31.251 22.5C31.5825 22.5 31.9005 22.3683 32.1349 22.1339C32.3693 21.8995 32.501 21.5815 32.501 21.25C32.501 20.9185 32.3693 20.6005 32.1349 20.3661C31.9005 20.1317 31.5825 20 31.251 20Z" fill="#E32424"/>
</svg>
