<svg width="52" height="53" viewBox="0 0 52 53" fill="none" xmlns="http://www.w3.org/2000/svg">
<rect y="0.5" width="52" height="52" rx="26" fill="white"/>
<path fill-rule="evenodd" clip-rule="evenodd" d="M32 17.5C32.7956 17.5 33.5587 17.8161 34.1213 18.3787C34.6839 18.9413 35 19.7044 35 20.5V32.5C35 33.2956 34.6839 34.0587 34.1213 34.6213C33.5587 35.1839 32.7956 35.5 32 35.5H20C19.2044 35.5 18.4413 35.1839 17.8787 34.6213C17.3161 34.0587 17 33.2956 17 32.5V20.5C17 19.7044 17.3161 18.9413 17.8787 18.3787C18.4413 17.8161 19.2044 17.5 20 17.5H32ZM22 24.5C21.7348 24.5 21.4804 24.6054 21.2929 24.7929C21.1054 24.9804 21 25.2348 21 25.5V30.5C21 30.7652 21.1054 31.0196 21.2929 31.2071C21.4804 31.3946 21.7348 31.5 22 31.5C22.2652 31.5 22.5196 31.3946 22.7071 31.2071C22.8946 31.0196 23 30.7652 23 30.5V25.5C23 25.2348 22.8946 24.9804 22.7071 24.7929C22.5196 24.6054 22.2652 24.5 22 24.5ZM25 23.5C24.7348 23.5 24.4804 23.6054 24.2929 23.7929C24.1054 23.9804 24 24.2348 24 24.5V30.5C24 30.7652 24.1054 31.0196 24.2929 31.2071C24.4804 31.3946 24.7348 31.5 25 31.5C25.2652 31.5 25.5196 31.3946 25.7071 31.2071C25.8946 31.0196 26 30.7652 26 30.5V26.84C26.305 26.496 26.82 26.092 27.393 25.847C27.726 25.705 28.227 25.647 28.575 25.757C28.6904 25.7863 28.7933 25.8523 28.868 25.945C28.92 26.015 29 26.171 29 26.5V30.5C29 30.7652 29.1054 31.0196 29.2929 31.2071C29.4804 31.3946 29.7348 31.5 30 31.5C30.2652 31.5 30.5196 31.3946 30.7071 31.2071C30.8946 31.0196 31 30.7652 31 30.5V26.5C31 25.83 30.83 25.234 30.476 24.756C30.1503 24.3226 29.6944 24.0047 29.175 23.849C28.273 23.566 27.274 23.723 26.607 24.009C26.3935 24.1008 26.1854 24.205 25.984 24.321C25.9421 24.0906 25.8206 23.8822 25.6408 23.7322C25.461 23.5821 25.2342 23.5 25 23.5ZM22 21.5C21.7348 21.5 21.4804 21.6054 21.2929 21.7929C21.1054 21.9804 21 22.2348 21 22.5C21 22.7652 21.1054 23.0196 21.2929 23.2071C21.4804 23.3946 21.7348 23.5 22 23.5C22.2652 23.5 22.5196 23.3946 22.7071 23.2071C22.8946 23.0196 23 22.7652 23 22.5C23 22.2348 22.8946 21.9804 22.7071 21.7929C22.5196 21.6054 22.2652 21.5 22 21.5Z" fill="#E32424"/>
</svg>
