<svg width="52" height="53" viewBox="0 0 52 53" fill="none" xmlns="http://www.w3.org/2000/svg">
<rect y="0.5" width="52" height="52" rx="26" fill="white"/>
<g clip-path="url(#clip0_1507_14187)">
<path d="M14 26.5009C14.0002 24.1616 14.6841 21.8734 15.9676 19.9178C17.2511 17.9621 19.0783 16.4242 21.2243 15.4932C23.3703 14.5622 25.7416 14.2788 28.0466 14.6778C30.3516 15.0767 32.4897 16.1407 34.198 17.7388C35.9062 19.3369 37.1102 21.3994 37.6617 23.6727C38.2132 25.946 38.0883 28.3309 37.3023 30.5342C36.5162 32.7374 35.1034 34.6629 33.2375 36.0737C31.3716 37.4846 29.134 38.3193 26.8 38.4753V28.9009H30V27.3009H26.8V24.9009C26.8 24.2643 27.0529 23.6539 27.5029 23.2038C27.953 22.7537 28.5635 22.5009 29.2 22.5009H30V20.9009H29.2C28.1391 20.9009 27.1217 21.3223 26.3716 22.0724C25.6214 22.8226 25.2 23.84 25.2 24.9009V27.3009H22V28.9009H25.2V38.4753C22.1625 38.2723 19.3156 36.9225 17.2361 34.6991C15.1565 32.4758 13.9997 29.5452 14 26.5009Z" fill="#E32424"/>
</g>
<defs>
<clipPath id="clip0_1507_14187">
<rect width="24" height="24" fill="white" transform="translate(14 14.5)"/>
</clipPath>
</defs>
</svg>
