<svg width="20" height="20" viewBox="0 0 20 20" fill="none" xmlns="http://www.w3.org/2000/svg">
<path d="M16.025 12.7161L13.9083 12.4745C13.6594 12.4452 13.4071 12.4728 13.1704 12.5551C12.9337 12.6373 12.7187 12.7722 12.5416 12.9495L11.0083 14.4828C8.6428 13.2794 6.72003 11.3567 5.51664 8.99115L7.05831 7.44948C7.41664 7.09115 7.59164 6.59115 7.53331 6.08281L7.29164 3.98281C7.24457 3.57622 7.04953 3.20117 6.74369 2.92914C6.43786 2.65712 6.04261 2.50715 5.63331 2.50781H4.19164C3.24997 2.50781 2.46664 3.29115 2.52497 4.23281C2.96664 11.3495 8.65831 17.0328 15.7666 17.4745C16.7083 17.5328 17.4916 16.7495 17.4916 15.8078V14.3661C17.5 13.5245 16.8666 12.8161 16.025 12.7161Z" fill="white"/>
</svg>
