<svg width="70" height="20" viewBox="0 0 70 20" fill="none" xmlns="http://www.w3.org/2000/svg">
<path d="M4.34 15.098C3.65867 15.098 3.04267 14.9813 2.492 14.748C1.95067 14.5147 1.52133 14.1787 1.204 13.74C0.886667 13.3013 0.723333 12.7833 0.714 12.186H2.814C2.842 12.5873 2.982 12.9047 3.234 13.138C3.49533 13.3713 3.85 13.488 4.298 13.488C4.75533 13.488 5.11467 13.3807 5.376 13.166C5.63733 12.942 5.768 12.6527 5.768 12.298C5.768 12.0087 5.67933 11.7707 5.502 11.584C5.32467 11.3973 5.10067 11.2527 4.83 11.15C4.56867 11.038 4.20467 10.9167 3.738 10.786C3.10333 10.5993 2.58533 10.4173 2.184 10.24C1.792 10.0533 1.45133 9.778 1.162 9.414C0.882 9.04067 0.742 8.546 0.742 7.93C0.742 7.35133 0.886667 6.84733 1.176 6.418C1.46533 5.98867 1.87133 5.662 2.394 5.438C2.91667 5.20467 3.514 5.088 4.186 5.088C5.194 5.088 6.01067 5.33533 6.636 5.83C7.27067 6.31533 7.62067 6.99667 7.686 7.874H5.53C5.51133 7.538 5.36667 7.26267 5.096 7.048C4.83467 6.824 4.48467 6.712 4.046 6.712C3.66333 6.712 3.35533 6.81 3.122 7.006C2.898 7.202 2.786 7.48667 2.786 7.86C2.786 8.12133 2.87 8.34067 3.038 8.518C3.21533 8.686 3.43 8.826 3.682 8.938C3.94333 9.04067 4.30733 9.162 4.774 9.302C5.40867 9.48867 5.92667 9.67533 6.328 9.862C6.72933 10.0487 7.07467 10.3287 7.364 10.702C7.65333 11.0753 7.798 11.5653 7.798 12.172C7.798 12.6947 7.66267 13.18 7.392 13.628C7.12133 14.076 6.72467 14.4353 6.202 14.706C5.67933 14.9673 5.05867 15.098 4.34 15.098ZM20.2493 7.244L17.9813 15H15.8673L14.4533 9.582L13.0393 15H10.9113L8.62925 7.244H10.6173L11.9893 13.152L13.4733 7.244H15.5453L17.0013 13.138L18.3733 7.244H20.2493ZM22.3038 6.32C21.9584 6.32 21.6691 6.21267 21.4358 5.998C21.2118 5.774 21.0998 5.49867 21.0998 5.172C21.0998 4.84533 21.2118 4.57467 21.4358 4.36C21.6691 4.136 21.9584 4.024 22.3038 4.024C22.6491 4.024 22.9338 4.136 23.1578 4.36C23.3911 4.57467 23.5078 4.84533 23.5078 5.172C23.5078 5.49867 23.3911 5.774 23.1578 5.998C22.9338 6.21267 22.6491 6.32 22.3038 6.32ZM23.2698 7.244V15H21.3098V7.244H23.2698ZM27.1662 8.364C27.4182 8.00933 27.7636 7.71533 28.2022 7.482C28.6502 7.23933 29.1589 7.118 29.7282 7.118C30.3909 7.118 30.9882 7.28133 31.5202 7.608C32.0616 7.93467 32.4862 8.40133 32.7942 9.008C33.1116 9.60533 33.2702 10.3007 33.2702 11.094C33.2702 11.8873 33.1116 12.592 32.7942 13.208C32.4862 13.8147 32.0616 14.286 31.5202 14.622C30.9882 14.958 30.3909 15.126 29.7282 15.126C29.1589 15.126 28.6549 15.0093 28.2162 14.776C27.7869 14.5427 27.4369 14.2487 27.1662 13.894V18.696H25.2062V7.244H27.1662V8.364ZM31.2682 11.094C31.2682 10.6273 31.1702 10.226 30.9742 9.89C30.7876 9.54467 30.5356 9.28333 30.2182 9.106C29.9102 8.92867 29.5742 8.84 29.2102 8.84C28.8556 8.84 28.5196 8.93333 28.2022 9.12C27.8942 9.29733 27.6422 9.55867 27.4462 9.904C27.2596 10.2493 27.1662 10.6553 27.1662 11.122C27.1662 11.5887 27.2596 11.9947 27.4462 12.34C27.6422 12.6853 27.8942 12.9513 28.2022 13.138C28.5196 13.3153 28.8556 13.404 29.2102 13.404C29.5742 13.404 29.9102 13.3107 30.2182 13.124C30.5356 12.9373 30.7876 12.6713 30.9742 12.326C31.1702 11.9807 31.2682 11.57 31.2682 11.094ZM41.9045 10.954C41.9045 11.234 41.8858 11.486 41.8485 11.71H36.1785C36.2252 12.27 36.4212 12.7087 36.7665 13.026C37.1118 13.3433 37.5365 13.502 38.0405 13.502C38.7685 13.502 39.2865 13.1893 39.5945 12.564H41.7085C41.4845 13.3107 41.0552 13.9267 40.4205 14.412C39.7858 14.888 39.0065 15.126 38.0825 15.126C37.3358 15.126 36.6638 14.9627 36.0665 14.636C35.4785 14.3 35.0165 13.8287 34.6805 13.222C34.3538 12.6153 34.1905 11.9153 34.1905 11.122C34.1905 10.3193 34.3538 9.61467 34.6805 9.008C35.0072 8.40133 35.4645 7.93467 36.0525 7.608C36.6405 7.28133 37.3172 7.118 38.0825 7.118C38.8198 7.118 39.4778 7.27667 40.0565 7.594C40.6445 7.91133 41.0972 8.364 41.4145 8.952C41.7412 9.53067 41.9045 10.198 41.9045 10.954ZM39.8745 10.394C39.8652 9.89 39.6832 9.48867 39.3285 9.19C38.9738 8.882 38.5398 8.728 38.0265 8.728C37.5412 8.728 37.1305 8.87733 36.7945 9.176C36.4678 9.46533 36.2672 9.87133 36.1925 10.394H39.8745Z" fill="#E32424"/>
<path d="M59.1667 7.5L61.6667 10L59.1667 12.5M67.5 10C67.5 5.85786 64.1421 2.5 60 2.5C55.8579 2.5 52.5 5.85786 52.5 10C52.5 14.1421 55.8579 17.5 60 17.5C64.1421 17.5 67.5 14.1421 67.5 10Z" stroke="#E32424" stroke-width="2" stroke-linecap="round" stroke-linejoin="round"/>
</svg>
